<svg version="1.1" id="Layer_1" xmlns="http://www.w3.org/2000/svg" xmlns:xlink="http://www.w3.org/1999/xlink" x="0px" y="0px"
	 width="100%" viewBox="0 0 312 312" enable-background="new 0 0 312 312" xml:space="preserve">
<g transform="translate(-356, -132)">
<path fill="#FFFFFF" opacity="1.000000" stroke="none" 
	d="
M446.000000,444.890564 
	C419.842743,444.897980 394.185486,444.923218 368.528229,444.903748 
	C358.844696,444.896393 356.707581,442.749176 356.706573,433.193329 
	C356.696442,336.895294 356.691223,240.597244 356.689575,144.299210 
	C356.689423,134.709106 358.738525,132.685165 368.484344,132.684952 
	C464.615784,132.682831 560.747253,132.686218 656.878662,132.694626 
	C666.490112,132.695465 668.143433,133.976883 668.583618,143.296753 
	C669.299011,158.442459 668.555359,173.600815 668.522278,188.752258 
	C668.446228,223.566772 668.373962,258.381439 668.748474,293.199799 
	C669.156799,331.174713 668.546143,369.160217 668.455383,407.141296 
	C668.435120,415.632568 668.841553,424.124420 668.850403,432.616241 
	C668.860962,442.816315 666.750916,444.877228 656.420715,444.880493 
	C586.447144,444.902618 516.473572,444.891205 446.000000,444.890564 
M382.305908,292.499939 
	C382.311127,331.490540 382.311859,370.481171 382.325836,409.471771 
	C382.328339,416.455841 384.222137,418.558350 391.067230,418.571320 
	C424.225708,418.634033 457.384399,418.633545 490.542938,418.590851 
	C496.891571,418.582703 498.899017,416.529999 498.939148,410.166595 
	C499.013733,398.336609 498.969025,386.505859 498.967804,374.675415 
	C498.964294,340.517059 498.969482,306.358704 498.942139,272.200348 
	C498.936920,265.705261 497.119446,263.397217 491.504211,263.384583 
	C457.679291,263.308380 423.854065,263.308258 390.029083,263.371948 
	C384.551178,263.382263 382.373932,265.840576 382.325531,271.504913 
	C382.268555,278.169464 382.308258,284.834900 382.305908,292.499939 
M641.669067,240.500061 
	C641.667725,216.004730 641.679260,191.509369 641.656677,167.014053 
	C641.650391,160.138947 639.899292,158.325516 633.186768,158.321625 
	C599.859741,158.302307 566.532715,158.308121 533.205688,158.332565 
	C526.688293,158.337341 524.936157,160.012863 524.927490,166.696976 
	C524.875977,206.356033 524.874084,246.015198 524.919495,285.674255 
	C524.926697,291.955139 526.754211,293.678894 533.026855,293.683655 
	C566.353882,293.708954 599.680908,293.708893 633.007935,293.686676 
	C639.569580,293.682312 641.624573,291.618286 641.645874,284.991821 
	C641.692566,270.494690 641.665466,255.997330 641.669067,240.500061 
M539.540283,320.282257 
	C537.373962,320.280518 535.207397,320.258240 533.041382,320.280914 
	C526.732239,320.346863 524.407898,322.846405 524.448486,329.130402 
	C524.618408,355.445007 524.780518,381.759888 524.833069,408.074890 
	C524.851074,417.081879 526.200012,418.659332 535.053162,418.662109 
	C567.214111,418.672302 599.375061,418.672150 631.536011,418.667511 
	C639.859558,418.666290 641.659424,416.831268 641.662720,408.305695 
	C641.672852,382.143707 641.672485,355.981689 641.662537,329.819702 
	C641.659424,321.765015 640.161682,320.281219 632.010803,320.279144 
	C601.516235,320.271362 571.021667,320.280090 539.540283,320.282257 
z"/>
</g>
</svg>
